<svg xmlns="http://www.w3.org/2000/svg" version="1.1" xmlns:xlink="http://www.w3.org/1999/xlink" xmlns:svgjs="http://svgjs.com/svgjs" width="1440" height="560" preserveAspectRatio="none" viewBox="0 0 1440 560"><g mask="url(&quot;#SvgjsMask1000&quot;)" fill="none"><rect width="1440" height="560" x="0" y="0" fill="#0e2a47"></rect><path d="M 0,41 C 57.6,77.4 172.8,220 288,223 C 403.2,226 460.8,60.8 576,56 C 691.2,51.2 748.8,182.8 864,199 C 979.2,215.2 1036.8,145.2 1152,137 C 1267.2,128.8 1382.4,153.8 1440,158L1440 560L0 560z" fill="#184a7e"></path><path d="M 0,308 C 96,341.4 288,472.8 480,475 C 672,477.2 768,314.4 960,319 C 1152,323.6 1344,462.2 1440,498L1440 560L0 560z" fill="#2264ab"></path></g><defs><mask id="SvgjsMask1000"><rect width="1440" height="560" fill="#ffffff"></rect></mask></defs></svg>